# Blender 3.6.0
# www.blender.org
mtllib dirt.mtl
o Cube
v 1.000000 1.000000 -1.000000
v 1.000000 -1.000000 -1.000000
v 1.000000 1.000000 1.000000
v 1.000000 -1.000000 1.000000
v -1.000000 1.000000 -1.000000
v -1.000000 -1.000000 -1.000000
v -1.000000 1.000000 1.000000
v -1.000000 -1.000000 1.000000
vn -0.0000 1.0000 -0.0000
vn -0.0000 -0.0000 1.0000
vn -1.0000 -0.0000 -0.0000
vn -0.0000 -1.0000 -0.0000
vn 1.0000 -0.0000 -0.0000
vn -0.0000 -0.0000 -1.0000
vt 0.494172 0.665423
vt 0.250350 0.667289
vt 0.250350 0.333955
vt 0.494172 0.332090
vt 0.265738 0.968297
vt 0.265738 0.648709
vt 0.486098 0.650497
vt 0.484757 0.970086
vt 0.721208 0.650497
vt 0.486098 0.330909
vt 0.721208 0.330909
vt 0.985548 0.329602
vt 0.985548 0.662935
vt 0.740326 0.664801
vt 0.740326 0.331468
vt 0.258741 0.979478
vt 0.258741 0.646144
vt 0.488578 0.644279
vt 0.488578 0.977612
vt 0.259859 0.957859
vt 0.259859 0.648970
vt 0.488393 0.647241
vt 0.488393 0.956130
s 0
usemtl Material
f 1/1/1 5/2/1 7/3/1 3/4/1
f 4/5/2 3/6/2 7/7/2 8/8/2
f 8/9/3 7/7/3 5/10/3 6/11/3
f 6/12/4 2/13/4 4/14/4 8/15/4
f 2/16/5 1/17/5 3/18/5 4/19/5
f 6/20/6 5/21/6 1/22/6 2/23/6
